<?xml version="1.0" encoding="UTF-8"?>
<svg xmlns="http://www.w3.org/2000/svg" xmlns:xlink="http://www.w3.org/1999/xlink" width="108px" height="108px" viewBox="0 0 108 108" version="1.1">
<g id="surface2">
<path style=" stroke:none;fill-rule:nonzero;fill:rgb(100%,100%,100%);fill-opacity:1;" d="M 35.710938 44.78125 C 35.710938 46.582031 34.25 48.039062 32.453125 48.039062 C 30.65625 48.039062 29.199219 46.582031 29.199219 44.78125 C 29.199219 42.984375 30.65625 41.527344 32.453125 41.527344 C 34.25 41.527344 35.710938 42.984375 35.710938 44.78125 Z M 35.710938 44.78125 "/>
<path style=" stroke:none;fill-rule:nonzero;fill:rgb(100%,100%,100%);fill-opacity:1;" d="M 35.667969 54.035156 C 35.667969 55.835938 34.210938 57.292969 32.410156 57.292969 C 30.613281 57.292969 29.15625 55.835938 29.15625 54.035156 C 29.15625 52.238281 30.613281 50.78125 32.410156 50.78125 C 34.210938 50.78125 35.667969 52.238281 35.667969 54.035156 Z M 35.667969 54.035156 "/>
<path style=" stroke:none;fill-rule:nonzero;fill:rgb(100%,100%,100%);fill-opacity:1;" d="M 35.671875 63.375 C 35.671875 65.171875 34.214844 66.632812 32.414062 66.632812 C 30.617188 66.632812 29.160156 65.171875 29.160156 63.375 C 29.160156 61.578125 30.617188 60.121094 32.414062 60.121094 C 34.214844 60.121094 35.671875 61.578125 35.671875 63.375 Z M 35.671875 63.375 "/>
<path style=" stroke:none;fill-rule:nonzero;fill:rgb(100%,100%,100%);fill-opacity:1;" d="M 43.3125 44.699219 C 43.3125 46.496094 41.855469 47.953125 40.058594 47.953125 C 38.257812 47.953125 36.800781 46.496094 36.800781 44.699219 C 36.800781 42.898438 38.257812 41.441406 40.058594 41.441406 C 41.855469 41.441406 43.3125 42.898438 43.3125 44.699219 Z M 43.3125 44.699219 "/>
<path style=" stroke:none;fill-rule:nonzero;fill:rgb(100%,100%,100%);fill-opacity:1;" d="M 43.304688 53.882812 C 43.304688 55.679688 41.847656 57.136719 40.050781 57.136719 C 38.253906 57.136719 36.796875 55.679688 36.796875 53.882812 C 36.796875 52.085938 38.253906 50.628906 40.050781 50.628906 C 41.847656 50.628906 43.304688 52.085938 43.304688 53.882812 Z M 43.304688 53.882812 "/>
<path style=" stroke:none;fill-rule:nonzero;fill:rgb(100%,100%,100%);fill-opacity:1;" d="M 43.285156 63.222656 C 43.285156 65.019531 41.828125 66.476562 40.03125 66.476562 C 38.230469 66.476562 36.773438 65.019531 36.773438 63.222656 C 36.773438 61.421875 38.230469 59.964844 40.03125 59.964844 C 41.828125 59.964844 43.285156 61.421875 43.285156 63.222656 Z M 43.285156 63.222656 "/>
<path style=" stroke:none;fill-rule:nonzero;fill:rgb(100%,100%,100%);fill-opacity:1;" d="M 51.015625 44.625 C 51.015625 46.421875 49.558594 47.878906 47.757812 47.878906 C 45.960938 47.878906 44.503906 46.421875 44.503906 44.625 C 44.503906 42.828125 45.960938 41.367188 47.757812 41.367188 C 49.558594 41.367188 51.015625 42.828125 51.015625 44.625 Z M 51.015625 44.625 "/>
<path style=" stroke:none;fill-rule:nonzero;fill:rgb(100%,100%,100%);fill-opacity:1;" d="M 64.636719 53.882812 C 64.636719 55.679688 63.179688 57.136719 61.382812 57.136719 C 59.585938 57.136719 58.128906 55.679688 58.128906 53.882812 C 58.128906 52.085938 59.585938 50.628906 61.382812 50.628906 C 63.179688 50.628906 64.636719 52.085938 64.636719 53.882812 Z M 64.636719 53.882812 "/>
<path style=" stroke:none;fill-rule:nonzero;fill:rgb(100%,100%,100%);fill-opacity:1;" d="M 78.84375 63.261719 C 78.84375 65.0625 77.386719 66.519531 75.589844 66.519531 C 73.789062 66.519531 72.332031 65.0625 72.332031 63.261719 C 72.332031 61.464844 73.789062 60.007812 75.589844 60.007812 C 77.386719 60.007812 78.84375 61.464844 78.84375 63.261719 Z M 78.84375 63.261719 "/>
<path style=" stroke:none;fill-rule:nonzero;fill:rgb(100%,100%,100%);fill-opacity:1;" d="M 40.296875 59.976562 L 75.511719 59.976562 L 75.511719 66.460938 L 40.296875 66.460938 Z M 40.296875 59.976562 "/>
<path style=" stroke:none;fill-rule:nonzero;fill:rgb(100%,100%,100%);fill-opacity:1;" d="M 40.070312 50.65625 L 61.273438 50.65625 L 61.273438 57.140625 L 40.070312 57.140625 Z M 40.070312 50.65625 "/>
<path style=" stroke:none;fill-rule:nonzero;fill:rgb(100%,100%,100%);fill-opacity:1;" d="M 40.28125 41.417969 L 47.847656 41.417969 L 47.847656 47.90625 L 40.28125 47.90625 Z M 40.28125 41.417969 "/>
</g>
</svg>
